<svg xmlns="http://www.w3.org/2000/svg" width="100" height="87.931" viewBox="0 0 100 87.931">
  <g id="lights" transform="translate(0 -30.897)">
    <path id="Path_6747" data-name="Path 6747" d="M60.25,149.173h50.534a41.379,41.379,0,1,0-50.534,0Z" transform="translate(-35.517 -35.517)" fill="#ffebeb"/>
    <path id="Path_6748" data-name="Path 6748" d="M133.924,103.584a1.724,1.724,0,0,0-2.355-.631l-9,5.194a32.935,32.935,0,0,0-9.619-9.619l5.194-9a1.724,1.724,0,1,0-2.986-1.724L109.969,96.8a32.817,32.817,0,0,0-29.733,0l-5.192-8.993a1.724,1.724,0,0,0-2.986,1.724l5.194,9a32.932,32.932,0,0,0-9.619,9.619l-9-5.194a1.724,1.724,0,1,0-1.724,2.986l8.993,5.192a32.759,32.759,0,1,0,58.4,0l8.993-5.192A1.724,1.724,0,0,0,133.924,103.584Z" transform="translate(-45.102 -45.101)" fill="#ffcece"/>
    <path id="Path_6749" data-name="Path 6749" d="M169.931,412H114.759v-6.9a3.448,3.448,0,0,1,3.448-3.448h48.276a3.448,3.448,0,0,1,3.448,3.448Z" transform="translate(-92.345 -298.345)" fill="#c7cfe2"/>
    <path id="Path_6750" data-name="Path 6750" d="M180.69,209.863H132.414V187.449a24.138,24.138,0,0,1,24.138-24.138h0a24.138,24.138,0,0,1,24.138,24.138Z" transform="translate(-106.552 -106.552)" fill="#ff6464"/>
    <g id="Group_3314" data-name="Group 3314" transform="translate(18.965 103.311)">
      <path id="Path_6751" data-name="Path 6751" d="M157.448,459.792H98.827a1.724,1.724,0,0,1-1.724-1.724v-1.724a1.724,1.724,0,0,1,1.724-1.724h58.621a1.724,1.724,0,0,1,1.724,1.724v1.724A1.724,1.724,0,0,1,157.448,459.792Z" transform="translate(-97.103 -444.274)" fill="#afb9d2"/>
      <path id="Path_6752" data-name="Path 6752" d="M135.449,401.655H118.207a3.448,3.448,0,0,0-3.448,3.448V412H132v-6.9A3.448,3.448,0,0,1,135.449,401.655Z" transform="translate(-111.311 -401.655)" fill="#afb9d2"/>
    </g>
    <path id="Path_6753" data-name="Path 6753" d="M116.069,458.068v-1.724a1.724,1.724,0,0,1,1.724-1.724H98.828a1.724,1.724,0,0,0-1.724,1.724v1.724a1.724,1.724,0,0,0,1.724,1.724h18.965A1.724,1.724,0,0,1,116.069,458.068Z" transform="translate(-78.138 -340.965)" fill="#959cb3"/>
    <path id="Path_6754" data-name="Path 6754" d="M162.2,164a24.058,24.058,0,0,0-29.787,23.446v22.414h17.241V187.449C149.655,176.067,155.008,166.55,162.2,164Z" transform="translate(-106.552 -106.552)" fill="#d2555a"/>
    <path id="Path_6755" data-name="Path 6755" d="M234.483,258.484a6.9,6.9,0,1,0-9.206,6.471L224.138,280.9h6.9L229.9,264.954A6.877,6.877,0,0,0,234.483,258.484Z" transform="translate(-177.586 -177.587)" fill="#ff937c"/>
    <g id="Group_3315" data-name="Group 3315" transform="translate(0 30.897)">
      <path id="Path_6756" data-name="Path 6756" d="M419.655,279.793h0a1.724,1.724,0,0,0-1.724-1.724H398.965a1.724,1.724,0,0,0-1.724,1.724h0a1.724,1.724,0,0,0,1.724,1.724h18.965A1.724,1.724,0,0,0,419.655,279.793Z" transform="translate(-319.655 -229.793)" fill="#ffb1b1"/>
      <path id="Path_6757" data-name="Path 6757" d="M0,279.793H0a1.724,1.724,0,0,0,1.724,1.724H20.69a1.724,1.724,0,0,0,1.724-1.724h0a1.724,1.724,0,0,0-1.724-1.724H1.724A1.724,1.724,0,0,0,0,279.793Z" transform="translate(0 -229.793)" fill="#ffb1b1"/>
      <path id="Path_6758" data-name="Path 6758" d="M248.9,30.9h0a1.724,1.724,0,0,0-1.724,1.724V51.587a1.724,1.724,0,0,0,1.724,1.724h0a1.724,1.724,0,0,0,1.724-1.724V32.621A1.724,1.724,0,0,0,248.9,30.9Z" transform="translate(-198.896 -30.897)" fill="#ffb1b1"/>
    </g>
  </g>
</svg>
